<svg width="160" height="34" viewBox="0 0 160 34" fill="none" xmlns="http://www.w3.org/2000/svg">
<path d="M12.4648 14.625C12.957 13.6406 13.4492 12.668 13.9414 11.707C14.4336 10.7227 14.8789 9.80859 15.2773 8.96484C15.6758 8.12109 16.0156 7.37109 16.2969 6.71484C16.5781 6.03516 16.7422 5.49609 16.7891 5.09766C16.8359 4.67578 16.8008 4.3125 16.6836 4.00781C16.5664 3.70313 16.3672 3.45703 16.0859 3.26953C15.8281 3.08203 15.5117 2.94141 15.1367 2.84766C14.7852 2.73047 14.3867 2.66016 13.9414 2.63672C13.168 2.58984 12.2422 2.61328 11.1641 2.70703C10.1094 2.77734 9.08984 2.92969 8.10547 3.16406C7.12109 3.375 6.26562 3.67969 5.53906 4.07812C4.83594 4.47656 4.46094 4.96875 4.41406 5.55469C4.39062 5.88281 4.44922 6.17578 4.58984 6.43359C4.70703 6.64453 4.91797 6.84375 5.22266 7.03125C5.55078 7.21875 6.03125 7.28906 6.66406 7.24219C6.78125 7.24219 6.92188 7.23047 7.08594 7.20703C7.22656 7.18359 7.40234 7.16016 7.61328 7.13672C7.82422 7.08984 8.07031 7.03125 8.35156 6.96094L6.62891 9.28125C6.30078 9.75 5.94922 10.0312 5.57422 10.125C5.19922 10.2188 4.85938 10.2422 4.55469 10.1953C4.39062 10.1719 4.0625 10.0898 3.57031 9.94922C3.10156 9.80859 2.62109 9.59766 2.12891 9.31641C1.66016 9.03516 1.25 8.66016 0.898438 8.19141C0.546875 7.69922 0.40625 7.08984 0.476562 6.36328C0.570312 5.51953 0.933594 4.74609 1.56641 4.04297C2.19922 3.31641 3.07812 2.69531 4.20312 2.17969C5.35156 1.66406 6.71094 1.26562 8.28125 0.984375C9.875 0.703125 11.668 0.5625 13.6602 0.5625C15.1602 0.5625 16.3555 0.726562 17.2461 1.05469C18.1367 1.35937 18.7812 1.76953 19.1797 2.28516C19.6016 2.77734 19.8008 3.36328 19.7773 4.04297C19.7773 4.69922 19.6367 5.37891 19.3555 6.08203C19.2148 6.41016 19.0039 6.86719 18.7227 7.45312C18.4648 8.01562 18.1484 8.68359 17.7734 9.45703C17.3984 10.207 17 11.0391 16.5781 11.9531C16.1562 12.8672 15.7344 13.8164 15.3125 14.8008C15.9453 14.8477 16.5195 14.9062 17.0352 14.9766C17.5742 15.0469 17.9961 15.1055 18.3008 15.1523C18.6523 15.2461 18.7695 15.3984 18.6523 15.6094C18.4414 16.0312 18.2305 16.3477 18.0195 16.5586C17.832 16.7695 17.6211 16.9219 17.3867 17.0156C17.1523 17.0859 16.8945 17.1211 16.6133 17.1211C16.332 17.0977 16.0156 17.0742 15.6641 17.0508C15.4531 17.0508 15.2422 17.0508 15.0312 17.0508C14.8203 17.0273 14.5977 17.0039 14.3633 16.9805C13.918 18.0352 13.4844 19.0781 13.0625 20.1094C12.6641 21.1406 12.2891 22.125 11.9375 23.0625C11.6094 23.9766 11.3164 24.8203 11.0586 25.5938C10.8008 26.3672 10.625 27.0117 10.5312 27.5273C10.3906 28.2539 10.2852 28.9336 10.2148 29.5664C10.168 30.1055 10.1445 30.668 10.1445 31.2539C10.1445 31.8398 10.2383 32.3086 10.4258 32.6602C9.93359 32.8008 9.5 32.918 9.125 33.0117C8.77344 33.1055 8.46875 33.1758 8.21094 33.2227C7.92969 33.293 7.69531 33.3516 7.50781 33.3984C6.85156 33.5625 6.38281 33.5391 6.10156 33.3281C5.84375 33.1406 5.77344 32.6719 5.89062 31.9219C5.9375 31.4062 6.00781 30.8203 6.10156 30.1641C6.21875 29.5312 6.38281 28.8047 6.59375 27.9844C6.82812 27.1875 7.12109 26.2969 7.47266 25.3125C7.84766 24.3047 8.31641 23.1914 8.87891 21.9727C9.20703 21.2695 9.58203 20.4961 10.0039 19.6523C10.4258 18.7852 10.8711 17.8594 11.3398 16.875C10.3086 16.875 9.19531 16.9453 8 17.0859C7.34375 17.1797 6.69922 17.2852 6.06641 17.4023C5.52734 17.5195 4.94141 17.6602 4.30859 17.8242C3.69922 17.9648 3.125 18.1289 2.58594 18.3164C2.51562 18.1289 2.46875 17.9414 2.44531 17.7539C2.44531 17.5664 2.45703 17.3906 2.48047 17.2266C2.50391 17.0625 2.53906 16.8984 2.58594 16.7344C2.63281 16.5703 2.70312 16.4062 2.79688 16.2422C2.9375 15.9609 3.16016 15.6094 3.46484 15.1875C4.56641 15.0469 5.62109 14.9414 6.62891 14.8711C7.63672 14.8008 8.52734 14.7422 9.30078 14.6953C10.2148 14.6484 11.0703 14.625 11.8672 14.625C11.9844 14.6016 12.0781 14.6016 12.1484 14.625C12.2422 14.625 12.3477 14.625 12.4648 14.625ZM24.4531 27.5625C23.5625 27.5625 22.8359 27.4219 22.2734 27.1406C21.7109 26.8594 21.2656 26.5195 20.9375 26.1211C20.6328 25.6992 20.4102 25.2539 20.2695 24.7852C20.1523 24.293 20.0938 23.8477 20.0938 23.4492C20.0938 22.7461 20.1523 22.0078 20.2695 21.2344C20.3867 20.4375 20.5273 19.7109 20.6914 19.0547C20.8555 18.375 20.9961 17.8008 21.1133 17.332C21.2539 16.8633 21.3477 16.5703 21.3945 16.4531C21.6055 15.7734 21.875 15.1875 22.2031 14.6953C22.5547 14.1797 23.0352 13.8281 23.6445 13.6406C23.8789 13.5938 24.125 13.5469 24.3828 13.5C24.5938 13.4766 24.8047 13.4648 25.0156 13.4648C25.25 13.4648 25.4609 13.5 25.6484 13.5703C25.0156 15.1875 24.5117 16.5352 24.1367 17.6133C23.7852 18.6914 23.5156 19.5703 23.3281 20.25C23.1172 21.0234 22.9883 21.6445 22.9414 22.1133C22.8242 23.168 22.918 23.9648 23.2227 24.5039C23.5273 25.043 24.1484 25.3125 25.0859 25.3125C25.6953 25.3125 26.2812 25.0898 26.8438 24.6445C27.4062 24.1758 27.9219 23.5781 28.3906 22.8516C28.3203 22.4766 28.2852 22.0898 28.2852 21.6914C28.2852 20.9414 28.3438 20.2148 28.4609 19.5117C28.6016 18.7852 28.7539 18.1172 28.918 17.5078C29.1055 16.875 29.293 16.3125 29.4805 15.8203C29.6914 15.3281 29.8672 14.9414 30.0078 14.6602C30.2656 14.0977 30.5 13.7578 30.7109 13.6406C30.9219 13.5 31.2617 13.418 31.7305 13.3945C31.918 13.3711 32.0703 13.3711 32.1875 13.3945C32.3281 13.3945 32.4453 13.4062 32.5391 13.4297C32.8203 13.5 32.9609 13.6406 32.9609 13.8516C32.9609 14.2266 32.9375 14.7891 32.8906 15.5391C32.8438 16.2891 32.7031 17.0625 32.4688 17.8594C32.3047 18.5156 32.1406 19.0781 31.9766 19.5469C31.8359 19.9922 31.6953 20.3789 31.5547 20.707C31.4141 21.0117 31.2734 21.2695 31.1328 21.4805C30.9922 21.668 30.8633 21.8438 30.7461 22.0078C30.793 22.7109 30.8516 23.2734 30.9219 23.6953C30.9922 24.1172 31.0742 24.4453 31.168 24.6797C31.2852 24.8906 31.4141 25.043 31.5547 25.1367C31.7188 25.207 31.8945 25.2422 32.082 25.2422C32.4102 25.2422 32.7969 25.0898 33.2422 24.7852C33.6875 24.457 34.1445 24.0586 34.6133 23.5898C35.1055 23.0977 35.5859 22.5703 36.0547 22.0078C36.5469 21.4219 36.9922 20.8711 37.3906 20.3555C37.7891 19.8398 38.1289 19.3945 38.4102 19.0195C38.6914 18.6211 38.8672 18.375 38.9375 18.2812C39.1016 18.0703 39.2539 17.9414 39.3945 17.8945C39.5586 17.8477 39.6875 17.8711 39.7812 17.9648C39.875 18.0352 39.9219 18.1641 39.9219 18.3516C39.9453 18.5156 39.8984 18.7031 39.7812 18.9141C39.3125 19.8047 38.7266 20.7539 38.0234 21.7617C37.3438 22.7461 36.6055 23.6602 35.8086 24.5039C35.0352 25.3477 34.25 26.0508 33.4531 26.6133C32.6562 27.1758 31.9062 27.457 31.2031 27.457C30.5703 27.457 30.0664 27.2461 29.6914 26.8242C29.3398 26.3789 29.0352 25.7461 28.7773 24.9258C28.2383 25.7695 27.6055 26.4258 26.8789 26.8945C26.1523 27.3398 25.3438 27.5625 24.4531 27.5625ZM42.9453 25.8047C43.6719 25.8047 44.4688 25.5234 45.3359 24.9609C46.2266 24.375 47.082 23.6953 47.9023 22.9219C48.7461 22.1484 49.5078 21.3633 50.1875 20.5664C50.8906 19.7461 51.418 19.0898 51.7695 18.5977C51.9805 18.293 52.1797 18.1172 52.3672 18.0703C52.5547 18 52.6953 18.0234 52.7891 18.1406C52.8828 18.2578 52.918 18.4453 52.8945 18.7031C52.8711 18.9375 52.7656 19.207 52.5781 19.5117C52.4141 19.793 52.1328 20.2031 51.7344 20.7422C51.3594 21.2578 50.9023 21.832 50.3633 22.4648C49.8477 23.0742 49.25 23.707 48.5703 24.3633C47.9141 24.9961 47.2227 25.582 46.4961 26.1211C45.7695 26.6367 45.0195 27.0586 44.2461 27.3867C43.4727 27.7383 42.7109 27.9141 41.9609 27.9141C40.9297 27.9141 40.0625 27.7148 39.3594 27.3164C38.6797 26.9414 38.1289 26.4492 37.707 25.8398C37.3086 25.2305 37.0273 24.5625 36.8633 23.8359C36.6992 23.0859 36.6172 22.3477 36.6172 21.6211C36.6172 20.8945 36.7812 19.9922 37.1094 18.9141C37.4375 17.8359 37.918 16.8047 38.5508 15.8203C39.207 14.8125 40.0273 13.957 41.0117 13.2539C41.9961 12.5273 43.1562 12.1641 44.4922 12.1641C45.2422 12.1641 45.875 12.4219 46.3906 12.9375C46.9297 13.4531 47.1875 14.1562 47.1641 15.0469C47.1641 15.4688 47.0938 15.8906 46.9531 16.3125C46.8125 16.7109 46.625 17.0742 46.3906 17.4023C46.1562 17.707 45.875 17.9531 45.5469 18.1406C45.2422 18.3281 44.9023 18.4219 44.5273 18.4219C44.2227 18.4219 43.9883 18.3164 43.8242 18.1055C43.6836 17.8711 43.5898 17.6133 43.543 17.332C43.5195 17.0273 43.5195 16.7344 43.543 16.4531C43.5898 16.1719 43.6367 15.9844 43.6836 15.8906C43.8008 15.7266 43.9297 15.6094 44.0703 15.5391C44.2109 15.4688 44.375 15.3867 44.5625 15.293C44.7031 15.2227 44.8086 15.1172 44.8789 14.9766C44.9727 14.8359 45.0195 14.6836 45.0195 14.5195C45.0195 14.3555 44.9727 14.2148 44.8789 14.0977C44.7852 13.9805 44.6328 13.9219 44.4219 13.9219C44.2109 13.9219 43.8242 14.0977 43.2617 14.4492C42.7227 14.7773 42.1602 15.2812 41.5742 15.9609C41.0117 16.6172 40.5078 17.4492 40.0625 18.457C39.6172 19.4648 39.3828 20.6367 39.3594 21.9727C39.3359 22.7461 39.4414 23.3789 39.6758 23.8711C39.9102 24.3633 40.2031 24.75 40.5547 25.0312C40.9062 25.3125 41.293 25.5117 41.7148 25.6289C42.1367 25.7461 42.5469 25.8047 42.9453 25.8047ZM68.082 20.0039C67.543 20.8945 66.9219 21.8203 66.2188 22.7812C65.5391 23.7188 64.8125 24.5859 64.0391 25.3828C63.2656 26.1562 62.4688 26.8008 61.6484 27.3164C60.8281 27.832 60.0078 28.0898 59.1875 28.0898C58.3672 28.0898 57.7695 27.8086 57.3945 27.2461C57.043 26.707 56.8789 26.0977 56.9023 25.418C56.9023 25.1133 56.9258 24.8438 56.9727 24.6094C57.043 24.375 57.1133 24.1641 57.1836 23.9766C57.2539 23.7891 57.3242 23.6016 57.3945 23.4141C57.4883 23.2031 57.5703 22.9688 57.6406 22.7109C57.7344 22.4062 57.7344 22.1367 57.6406 21.9023C57.5703 21.6445 57.4766 21.4219 57.3594 21.2344C57.1484 21.4688 56.9023 21.6797 56.6211 21.8672C56.3633 22.0312 56.0352 22.1133 55.6367 22.1133C55.3555 22.1133 55.0977 21.9844 54.8633 21.7266C54.6289 21.4453 54.5117 21.1055 54.5117 20.707C54.5117 20.3789 54.582 20.1094 54.7227 19.8984C54.8867 19.6875 55.0625 19.5234 55.25 19.4062C55.4609 19.2891 55.6719 19.207 55.8828 19.1602C56.0938 19.1133 56.2695 19.0898 56.4102 19.0898C56.4805 19.0898 56.6211 19.1016 56.832 19.125C57.0664 19.1484 57.3125 19.1836 57.5703 19.2305C58.4141 18.5508 59.0117 17.9414 59.3633 17.4023C59.7383 16.8398 59.7734 16.3359 59.4688 15.8906C59.2812 15.5859 59.0469 15.4336 58.7656 15.4336C58.4844 15.4102 58.1914 15.4805 57.8867 15.6445C57.582 15.7852 57.2773 15.9727 56.9727 16.207C56.6914 16.4414 56.4336 16.6641 56.1992 16.875C55.7305 17.3438 55.2031 17.9062 54.6172 18.5625C54.0547 19.1953 53.5859 19.7227 53.2109 20.1445C53.0469 20.8477 52.8828 21.5859 52.7188 22.3594C52.5781 23.0391 52.4141 23.8125 52.2266 24.6797C52.0625 25.5234 51.8867 26.4023 51.6992 27.3164C51.5586 27.3867 51.4062 27.4336 51.2422 27.457C51.1016 27.5039 50.9727 27.5391 50.8555 27.5625C50.7148 27.5859 50.5742 27.5977 50.4336 27.5977C50.2461 27.5977 50.0703 27.5859 49.9062 27.5625C49.7422 27.5625 49.6133 27.5039 49.5195 27.3867C49.4023 27.293 49.3438 27.1289 49.3438 26.8945C49.3203 26.6602 49.3789 26.332 49.5195 25.9102C49.707 25.3008 49.9414 24.4922 50.2227 23.4844C50.5039 22.4531 50.7969 21.3281 51.1016 20.1094C51.4062 18.8906 51.7109 17.625 52.0156 16.3125C52.3438 14.9766 52.6484 13.7109 52.9297 12.5156C53.2109 11.2969 53.4453 10.207 53.6328 9.24609C53.8438 8.26172 53.9961 7.48828 54.0898 6.92578C54.1602 6.31641 54.2305 5.73047 54.3008 5.16797C54.3477 4.69922 54.3711 4.24219 54.3711 3.79688C54.3945 3.32812 54.3711 2.97656 54.3008 2.74219C54.418 2.625 54.582 2.51953 54.793 2.42578C55.0039 2.33203 55.2383 2.26172 55.4961 2.21484C55.7539 2.14453 56.0586 2.08594 56.4102 2.03906C56.8086 1.99219 57.1367 1.98047 57.3945 2.00391C57.6758 2.02734 57.875 2.14453 57.9922 2.35547C58.1328 2.58984 58.1562 2.98828 58.0625 3.55078C57.9922 4.08984 57.8281 4.85156 57.5703 5.83594C57.2422 7.10156 56.9023 8.26172 56.5508 9.31641C56.2227 10.3477 55.8945 11.3203 55.5664 12.2344C55.2617 13.1484 54.957 14.0391 54.6523 14.9062C54.3711 15.75 54.1133 16.6172 53.8789 17.5078C54.3477 16.8281 54.9336 16.1133 55.6367 15.3633C56.3398 14.5898 57.1367 13.957 58.0273 13.4648C58.9648 12.9727 59.7383 12.7266 60.3477 12.7266C61.0977 12.7266 61.6367 12.9844 61.9648 13.5C62.293 13.9922 62.4453 14.5781 62.4219 15.2578C62.3984 15.7969 62.2578 16.3008 62 16.7695C61.7656 17.2148 61.4727 17.6367 61.1211 18.0352C60.7695 18.4102 60.3945 18.7383 59.9961 19.0195C59.5977 19.3008 59.2578 19.5352 58.9766 19.7227C59.3047 19.9102 59.5859 20.168 59.8203 20.4961C60.0781 20.8008 60.1953 21.1875 60.1719 21.6562C60.1484 22.2891 60.0195 22.8516 59.7852 23.3438C59.5742 23.8125 59.4688 24.2461 59.4688 24.6445C59.4922 24.9492 59.5508 25.1719 59.6445 25.3125C59.7617 25.4531 59.9961 25.5234 60.3477 25.5234C60.9805 25.5234 61.6367 25.2539 62.3164 24.7148C63.0195 24.1758 63.6758 23.5547 64.2852 22.8516C64.8945 22.1484 65.457 21.457 65.9727 20.7773C66.4883 20.0742 66.8867 19.5586 67.168 19.2305C67.5664 18.8086 67.8945 18.7031 68.1523 18.9141C68.4336 19.1016 68.4102 19.4648 68.082 20.0039ZM85.1328 18.1055C84.6875 17.6367 84.3242 17.0625 84.043 16.3828C83.7852 15.6797 83.5859 14.9883 83.4453 14.3086C83.2812 13.5352 83.1641 12.7148 83.0938 11.8477C82.9766 10.1602 83.1641 8.625 83.6562 7.24219C84.1484 5.85937 84.8164 4.67578 85.6602 3.69141C86.5039 2.70703 87.4414 1.94531 88.4727 1.40625C89.5273 0.867187 90.5469 0.597656 91.5312 0.597656C91.9766 0.597656 92.3281 0.703125 92.5859 0.914062C92.8672 1.125 93.0781 1.38281 93.2188 1.6875C93.3594 1.99219 93.4414 2.30859 93.4648 2.63672C93.5117 2.96484 93.5352 3.23438 93.5352 3.44531C93.5352 4.19531 93.5117 4.93359 93.4648 5.66016C93.4414 6.38672 93.3828 7.16016 93.2891 7.98047C93.2188 8.80078 93.1016 9.67969 92.9375 10.6172C92.7734 11.5547 92.5625 12.5977 92.3047 13.7461C92.1641 14.3789 91.9648 15.1875 91.707 16.1719C91.4492 17.1562 91.1445 18.2461 90.793 19.4414C91.8477 19.4648 92.6914 19.5117 93.3242 19.582C93.9805 19.6289 94.4023 19.6641 94.5898 19.6875C94.7539 19.7109 94.8711 19.793 94.9414 19.9336C95.0352 20.0742 94.9883 20.2969 94.8008 20.6016C94.6133 20.8828 94.3438 21.0469 93.9922 21.0938C93.6641 21.1406 93.3359 21.1641 93.0078 21.1641C92.8203 21.1641 92.4688 21.1641 91.9531 21.1641C91.4609 21.1641 90.875 21.1875 90.1953 21.2344C89.7031 22.6875 89.1406 24.1523 88.5078 25.6289C87.8984 27.082 87.2188 28.3945 86.4688 29.5664C85.7188 30.7617 84.8984 31.7227 84.0078 32.4492C83.1172 33.1992 82.168 33.5742 81.1602 33.5742C79.707 33.5742 78.4766 33.293 77.4688 32.7305C76.4844 32.1914 75.6875 31.5469 75.0781 30.7969C74.4453 30.0703 73.9883 29.332 73.707 28.582C73.4258 27.8555 73.2852 27.293 73.2852 26.8945C73.2852 26.1914 73.4727 25.4766 73.8477 24.75C74.2227 24.0234 74.8203 23.3438 75.6406 22.7109C76.4375 22.0547 77.4805 21.4805 78.7695 20.9883C80.0586 20.4961 81.6055 20.1211 83.4102 19.8633C84.1602 19.7695 84.875 19.6992 85.5547 19.6523C86.2344 19.582 86.8789 19.5234 87.4883 19.4766C87.957 17.7188 88.4258 15.9258 88.8945 14.0977C89.3867 12.2695 89.8086 10.582 90.1602 9.03516C90.3008 8.40234 90.4414 7.72266 90.582 6.99609C90.7227 6.24609 90.8281 5.54297 90.8984 4.88672C90.9922 4.23047 91.0391 3.67969 91.0391 3.23438C91.0625 2.78906 91.0156 2.54297 90.8984 2.49609C90.8281 2.47266 90.6523 2.56641 90.3711 2.77734C90.0898 2.96484 89.7617 3.24609 89.3867 3.62109C89.0117 3.99609 88.6367 4.45312 88.2617 4.99219C87.9102 5.50781 87.6172 6.07031 87.3828 6.67969C86.9609 7.875 86.6328 9.04688 86.3984 10.1953C86.2109 11.1797 86.0938 12.2227 86.0469 13.3242C86 14.4258 86.1758 15.4219 86.5742 16.3125C86.5273 16.6406 86.457 16.9102 86.3633 17.1211C86.293 17.2383 86.2344 17.3438 86.1875 17.4375C86.1172 17.5078 86.0352 17.5898 85.9414 17.6836C85.8477 17.7539 85.7305 17.8359 85.5898 17.9297C85.4727 18 85.3203 18.0586 85.1328 18.1055ZM84.7109 27.9141C84.9688 27.375 85.2852 26.543 85.6602 25.418C86.0352 24.293 86.4336 22.9922 86.8555 21.5156C85.707 21.6562 84.5469 21.8555 83.375 22.1133C82.2031 22.3477 81.1367 22.6758 80.1758 23.0977C79.2383 23.4961 78.4648 23.9883 77.8555 24.5742C77.2695 25.1602 76.9766 25.8516 76.9766 26.6484C76.9766 27.4922 77.1406 28.2305 77.4688 28.8633C77.8203 29.4961 78.2305 30.0234 78.6992 30.4453C79.1914 30.8672 79.6836 31.1836 80.1758 31.3945C80.6914 31.6289 81.125 31.7461 81.4766 31.7461C81.8281 31.7461 82.1562 31.6055 82.4609 31.3242C82.7891 31.0664 83.082 30.7383 83.3398 30.3398C83.6211 29.9648 83.8672 29.5547 84.0781 29.1094C84.3125 28.6641 84.5234 28.2656 84.7109 27.9141ZM100.285 25.8047C100.426 25.8984 100.602 25.9453 100.812 25.9453C101.047 25.9453 101.27 25.8984 101.48 25.8047C101.715 25.7109 101.926 25.582 102.113 25.418C102.324 25.2539 102.477 25.043 102.57 24.7852C102.664 24.5273 102.664 24.1641 102.57 23.6953C102.477 23.2031 102.324 22.6875 102.113 22.1484C101.926 21.5859 101.715 21.0234 101.48 20.4609C101.246 19.8984 101.047 19.3828 100.883 18.9141C100.742 18.5625 100.625 18.2344 100.531 17.9297C100.438 17.6719 100.344 17.4258 100.25 17.1914C100.18 16.9336 100.121 16.7578 100.074 16.6641C99.957 16.8516 99.7461 17.1562 99.4414 17.5781C99.1602 18 98.8438 18.4453 98.4922 18.9141C98.1641 19.3594 97.8477 19.7812 97.543 20.1797C97.2383 20.5547 97.0273 20.8125 96.9102 20.9531C96.7227 21.1641 96.5352 21.293 96.3477 21.3398C96.1836 21.3633 96.043 21.3281 95.9258 21.2344C95.8086 21.1172 95.7383 20.9648 95.7148 20.7773C95.7148 20.5664 95.8086 20.3203 95.9961 20.0391C96.1367 19.8516 96.3477 19.5586 96.6289 19.1602C96.9102 18.7383 97.1914 18.3164 97.4727 17.8945C97.7539 17.4492 98.0117 17.0625 98.2461 16.7344C98.4805 16.3828 98.6094 16.1719 98.6328 16.1016C98.6797 15.9141 98.6094 15.668 98.4219 15.3633C98.2578 15.0586 98.2344 14.707 98.3516 14.3086C98.4453 13.9805 98.6562 13.6055 98.9844 13.1836C99.3125 12.7383 99.6992 12.3398 100.145 11.9883C100.59 11.6367 101.047 11.3789 101.516 11.2148C101.984 11.0273 102.406 11.0273 102.781 11.2148C103.086 11.4023 103.332 11.6133 103.52 11.8477C103.707 12.0586 103.777 12.2812 103.73 12.5156C103.684 12.6328 103.613 12.7852 103.52 12.9727C103.426 13.1602 103.285 13.3945 103.098 13.6758C102.91 13.9336 102.641 14.2734 102.289 14.6953C102.359 15.2344 102.453 15.7266 102.57 16.1719C102.711 16.6172 102.84 17.0039 102.957 17.332C103.098 17.7305 103.25 18.0938 103.414 18.4219C103.625 18.8438 103.848 19.2773 104.082 19.7227C104.316 20.168 104.527 20.6133 104.715 21.0586C104.902 21.4805 105.055 21.8789 105.172 22.2539C105.289 22.6289 105.324 22.9453 105.277 23.2031C105.207 23.6016 104.996 24.082 104.645 24.6445C104.316 25.207 103.895 25.7578 103.379 26.2969C102.887 26.8125 102.312 27.2578 101.656 27.6328C101.023 28.0078 100.355 28.1953 99.6523 28.1953C99.1602 28.1953 98.6797 28.043 98.2109 27.7383C97.7656 27.4336 97.3789 27.082 97.0508 26.6836C96.7461 26.2617 96.5117 25.8516 96.3477 25.4531C96.207 25.0547 96.1953 24.75 96.3125 24.5391C96.4531 24.2578 96.582 24.0352 96.6992 23.8711C96.8164 23.707 96.9922 23.5195 97.2266 23.3086C97.3203 23.2383 97.4375 23.1562 97.5781 23.0625C97.6953 22.9922 97.8594 22.9219 98.0703 22.8516C98.2812 22.7812 98.5273 22.6992 98.8086 22.6055C99.043 23.332 99.2539 23.9062 99.4414 24.3281C99.6289 24.7266 99.7812 25.043 99.8984 25.2773C100.039 25.5352 100.168 25.7109 100.285 25.8047ZM106.648 26.8242C106.484 27.082 106.309 27.2461 106.121 27.3164C105.91 27.4102 105.734 27.4219 105.594 27.3516C105.43 27.3047 105.324 27.1875 105.277 27C105.23 26.8125 105.277 26.5781 105.418 26.2969C105.488 26.1562 105.652 25.8398 105.91 25.3477C106.145 24.8555 106.438 24.2695 106.789 23.5898C107.117 22.8867 107.48 22.1367 107.879 21.3398C108.277 20.5195 108.652 19.7461 109.004 19.0195C109.379 18.293 109.719 17.6484 110.023 17.0859C110.328 16.5 110.551 16.0781 110.691 15.8203C110.434 15.5859 110.258 15.4219 110.164 15.3281C110.07 15.2109 110 14.9766 109.953 14.625C109.906 14.3203 109.977 13.9219 110.164 13.4297C110.352 12.9375 110.598 12.4688 110.902 12.0234C111.207 11.5547 111.547 11.1562 111.922 10.8281C112.297 10.5 112.66 10.3359 113.012 10.3359C113.668 10.3359 114.125 10.5469 114.383 10.9688C114.664 11.3906 114.828 11.8242 114.875 12.2695C114.922 12.5742 114.898 12.9609 114.805 13.4297C114.711 13.8984 114.535 14.3203 114.277 14.6953C114.348 14.7422 114.441 14.8008 114.559 14.8711C114.676 14.918 114.863 14.9414 115.121 14.9414C115.496 14.9414 115.754 14.918 115.895 14.8711C116.059 14.8242 116.305 14.8008 116.633 14.8008C117.031 14.8008 117.359 14.9062 117.617 15.1172C117.875 15.3047 118.086 15.5508 118.25 15.8555C118.414 16.1367 118.531 16.4531 118.602 16.8047C118.695 17.1328 118.754 17.4375 118.777 17.7188C118.848 18.3047 118.695 18.9141 118.32 19.5469C117.945 20.1797 117.488 20.8711 116.949 21.6211C116.621 22.0898 116.293 22.6172 115.965 23.2031C115.637 23.7891 115.496 24.3164 115.543 24.7852C115.59 25.0898 115.672 25.3359 115.789 25.5234C115.906 25.7109 116.234 25.8047 116.773 25.8047C117.172 25.8047 117.605 25.6641 118.074 25.3828C118.566 25.0781 119.059 24.7031 119.551 24.2578C120.066 23.7891 120.57 23.2852 121.062 22.7461C121.555 22.1836 122.012 21.6445 122.434 21.1289C122.855 20.5898 123.207 20.1094 123.488 19.6875C123.793 19.2656 124.016 18.9609 124.156 18.7734C124.273 18.5859 124.426 18.457 124.613 18.3867C124.801 18.3164 124.965 18.3164 125.105 18.3867C125.246 18.457 125.328 18.5977 125.352 18.8086C125.398 19.0195 125.316 19.3008 125.105 19.6523C124.965 19.8867 124.719 20.2617 124.367 20.7773C124.039 21.293 123.629 21.8672 123.137 22.5C122.668 23.1328 122.141 23.7891 121.555 24.4688C120.969 25.125 120.348 25.7344 119.691 26.2969C119.059 26.8359 118.414 27.2812 117.758 27.6328C117.125 27.9844 116.516 28.1602 115.93 28.1602C115.32 28.1602 114.816 28.043 114.418 27.8086C114.02 27.5742 113.691 27.293 113.434 26.9648C113.199 26.6133 113.023 26.2383 112.906 25.8398C112.812 25.418 112.777 25.0312 112.801 24.6797C112.824 24.3984 112.895 24.1055 113.012 23.8008C113.152 23.4727 113.305 23.1445 113.469 22.8164C113.656 22.4648 113.844 22.125 114.031 21.7969C114.242 21.4453 114.43 21.1055 114.594 20.7773C114.992 20.0977 115.309 19.5234 115.543 19.0547C115.801 18.5625 115.93 18.1523 115.93 17.8242C115.93 17.6133 115.883 17.4258 115.789 17.2617C115.695 17.0977 115.543 17.0156 115.332 17.0156C115.191 17.0156 115.086 17.0273 115.016 17.0508C114.969 17.0508 114.91 17.0508 114.84 17.0508C114.793 17.0508 114.711 17.0625 114.594 17.0859C114.5 17.0859 114.348 17.0859 114.137 17.0859C113.832 17.0859 113.574 17.0391 113.363 16.9453C113.152 16.8516 112.953 16.7812 112.766 16.7344C112.672 16.8984 112.461 17.25 112.133 17.7891C111.805 18.3281 111.418 18.9609 110.973 19.6875C110.551 20.4141 110.094 21.1758 109.602 21.9727C109.133 22.7695 108.688 23.5195 108.266 24.2227C107.844 24.9023 107.492 25.4883 107.211 25.9805C106.906 26.4492 106.719 26.7305 106.648 26.8242ZM140.645 20.0039C140.316 20.4727 139.895 21.0586 139.379 21.7617C138.863 22.4414 138.324 23.1328 137.762 23.8359C137.223 24.5156 136.684 25.1484 136.145 25.7344C135.629 26.2969 135.195 26.6953 134.844 26.9297C134.609 27.0703 134.34 27.1875 134.035 27.2812C133.73 27.375 133.414 27.4336 133.086 27.457C132.781 27.4805 132.488 27.457 132.207 27.3867C131.926 27.3398 131.68 27.2461 131.469 27.1055C131.258 26.9414 131.082 26.707 130.941 26.4023C130.824 26.1445 130.707 25.8047 130.59 25.3828C130.496 24.9609 130.461 24.4336 130.484 23.8008C129.922 24.7383 129.301 25.4648 128.621 25.9805C127.941 26.4727 127.297 26.8359 126.688 27.0703C125.984 27.3281 125.281 27.4805 124.578 27.5273C124.25 27.5273 123.898 27.4102 123.523 27.1758C123.148 26.9648 122.832 26.625 122.574 26.1562C122.316 25.6641 122.152 25.043 122.082 24.293C122.012 23.5195 122.105 22.6055 122.363 21.5508C122.691 20.1211 123.207 18.8203 123.91 17.6484C124.637 16.4766 125.422 15.4805 126.266 14.6602C127.109 13.8164 127.941 13.1836 128.762 12.7617C129.582 12.3398 130.262 12.1523 130.801 12.1992C131.434 12.3164 131.949 12.5039 132.348 12.7617C132.676 12.9961 132.887 13.3477 132.98 13.8164C133.098 14.2617 132.91 14.8594 132.418 15.6094C132.746 15.5391 133.016 15.4922 133.227 15.4688C133.461 15.4453 133.637 15.4336 133.754 15.4336C133.895 15.4336 133.988 15.4453 134.035 15.4688C134.059 15.5156 134.07 15.6211 134.07 15.7852C134.07 15.9258 134.035 16.1953 133.965 16.5938C133.895 16.9922 133.789 17.5312 133.648 18.2109C133.508 18.8906 133.32 19.7695 133.086 20.8477C133.039 21.0586 132.992 21.2578 132.945 21.4453C132.922 21.6094 132.887 21.7852 132.84 21.9727C132.816 22.1367 132.781 22.3359 132.734 22.5703C132.688 22.8047 132.629 23.0977 132.559 23.4492C132.535 23.6602 132.523 23.8945 132.523 24.1523C132.547 24.3867 132.594 24.6094 132.664 24.8203C132.734 25.0312 132.84 25.207 132.98 25.3477C133.145 25.4648 133.367 25.5234 133.648 25.5234C133.883 25.5234 134.188 25.3828 134.562 25.1016C134.938 24.7969 135.336 24.4219 135.758 23.9766C136.18 23.5078 136.613 23.0039 137.059 22.4648C137.527 21.9023 137.961 21.3633 138.359 20.8477C138.758 20.332 139.109 19.875 139.414 19.4766C139.742 19.0781 139.977 18.7852 140.117 18.5977C140.305 18.3867 140.492 18.2695 140.68 18.2461C140.867 18.1992 141.008 18.2461 141.102 18.3867C141.195 18.5273 141.207 18.7383 141.137 19.0195C141.09 19.3008 140.926 19.6289 140.645 20.0039ZM130.344 21.5508C130.461 21.082 130.602 20.5312 130.766 19.8984C130.93 19.2656 131.07 18.6562 131.188 18.0703C131.305 17.4844 131.387 17.0039 131.434 16.6289C131.504 16.2305 131.492 16.043 131.398 16.0664C131.281 16.0898 131.152 16.125 131.012 16.1719C130.895 16.2188 130.742 16.2539 130.555 16.2773C130.367 16.3008 130.18 16.3359 129.992 16.3828C130.18 16.0078 130.285 15.7031 130.309 15.4688C130.355 15.2109 130.367 15.0117 130.344 14.8711C130.32 14.707 130.273 14.5781 130.203 14.4844C129.945 14.2734 129.488 14.4492 128.832 15.0117C128.199 15.5508 127.461 16.5586 126.617 18.0352C126.266 18.6445 125.984 19.3008 125.773 20.0039C125.562 20.6836 125.41 21.3281 125.316 21.9375C125.246 22.5469 125.234 23.0859 125.281 23.5547C125.328 24 125.422 24.293 125.562 24.4336C125.82 24.6914 126.113 24.8203 126.441 24.8203C126.77 24.7969 127.098 24.7031 127.426 24.5391C127.777 24.3516 128.117 24.1172 128.445 23.8359C128.797 23.5547 129.102 23.2617 129.359 22.957C129.641 22.6523 129.863 22.3711 130.027 22.1133C130.215 21.8555 130.32 21.668 130.344 21.5508ZM154.215 19.6875C153.512 20.7188 152.715 21.7266 151.824 22.7109C150.934 23.6719 149.984 24.5391 148.977 25.3125C147.992 26.0625 146.973 26.6719 145.918 27.1406C144.887 27.6094 143.879 27.8438 142.895 27.8438C142.379 27.8438 141.816 27.7148 141.207 27.457C140.621 27.2227 140.082 26.8477 139.59 26.332C139.098 25.8164 138.699 25.1484 138.395 24.3281C138.113 23.5078 138.031 22.5117 138.148 21.3398C138.242 20.3789 138.535 19.3711 139.027 18.3164C139.543 17.2383 140.164 16.2539 140.891 15.3633C141.641 14.4727 142.473 13.7344 143.387 13.1484C144.324 12.5625 145.262 12.2695 146.199 12.2695C147.09 12.2695 147.734 12.4922 148.133 12.9375C148.531 13.3828 148.707 13.9336 148.66 14.5898C148.59 15.3164 148.379 15.9844 148.027 16.5938C147.699 17.2031 147.301 17.7539 146.832 18.2461C146.363 18.7383 145.859 19.1836 145.32 19.582C144.805 19.9805 144.312 20.3438 143.844 20.6719C143.328 21.0234 142.836 21.3633 142.367 21.6914C141.898 21.9961 141.488 22.2773 141.137 22.5352C141.16 23.1211 141.266 23.6133 141.453 24.0117C141.641 24.4102 141.875 24.7383 142.156 24.9961C142.438 25.2305 142.754 25.4062 143.105 25.5234C143.48 25.6172 143.855 25.6641 144.23 25.6641C145.027 25.6641 145.859 25.418 146.727 24.9258C147.594 24.4102 148.438 23.8008 149.258 23.0977C150.102 22.3711 150.875 21.6211 151.578 20.8477C152.305 20.0742 152.902 19.4062 153.371 18.8438C153.535 18.6562 153.699 18.5508 153.863 18.5273C154.051 18.4805 154.191 18.5039 154.285 18.5977C154.402 18.668 154.461 18.8086 154.461 19.0195C154.461 19.207 154.379 19.4297 154.215 19.6875ZM145.215 14.2734C144.934 14.2734 144.594 14.4141 144.195 14.6953C143.82 14.9766 143.445 15.3867 143.07 15.9258C142.695 16.4414 142.344 17.0859 142.016 17.8594C141.688 18.6094 141.441 19.4766 141.277 20.4609C141.559 20.25 141.863 20.0391 142.191 19.8281C142.52 19.5938 142.848 19.3477 143.176 19.0898C144.184 18.3164 144.887 17.6367 145.285 17.0508C145.684 16.4648 145.906 15.9609 145.953 15.5391C146 15.0938 145.953 14.7773 145.812 14.5898C145.672 14.3789 145.473 14.2734 145.215 14.2734ZM151.156 26.4375C152.188 22.1016 153.008 18.6211 153.617 15.9961C154.25 13.3711 154.73 11.3672 155.059 9.98438C155.434 8.34375 155.691 7.20703 155.832 6.57422C155.902 6.12891 155.961 5.69531 156.008 5.27344C156.055 4.89844 156.078 4.51172 156.078 4.11328C156.078 3.71484 156.043 3.35156 155.973 3.02344C156.16 2.90625 156.359 2.8125 156.57 2.74219C156.805 2.67188 157.027 2.61328 157.238 2.56641C157.496 2.49609 157.754 2.4375 158.012 2.39062C158.27 2.34375 158.504 2.32031 158.715 2.32031C158.902 2.32031 159.078 2.34375 159.242 2.39062C159.406 2.41406 159.512 2.48437 159.559 2.60156C159.699 2.71875 159.758 2.95312 159.734 3.30469C159.734 3.65625 159.711 4.01953 159.664 4.39453C159.57 4.83984 159.465 5.32031 159.348 5.83594C159.066 6.84375 158.68 8.29688 158.188 10.1953C157.766 11.8125 157.191 14.0156 156.465 16.8047C155.762 19.5938 154.871 23.1094 153.793 27.3516C153.676 27.4688 153.535 27.5508 153.371 27.5977C153.207 27.6445 153.055 27.668 152.914 27.668C152.75 27.668 152.574 27.6562 152.387 27.6328C152.223 27.5859 152.059 27.5156 151.895 27.4219C151.754 27.3281 151.613 27.1992 151.473 27.0352C151.332 26.8945 151.227 26.6953 151.156 26.4375Z" fill="#FD961A"/>
</svg>
